<svg width="25" height="25" viewBox="0 0 25 25" fill="none" xmlns="http://www.w3.org/2000/svg">
<path d="M12.7623 22.3526C14.6997 22.4788 19.5808 21.1446 21.5318 17.732C21.6508 17.5205 21.7289 17.3123 21.9363 16.9199C23.1192 14.6949 23.7752 10.8729 23.2857 8.89366C23.1667 8.41591 21.8241 8.69915 19.8765 9.32364C17.888 9.96178 17.096 10.3781 17.096 10.3781C16.8139 10.187 16.9907 8.55924 16.0185 6.46055C15.0906 4.45741 13.0682 1.70693 12.3918 1.71376C12.3714 1.71376 12.351 1.71376 12.3306 1.71717C12.3102 1.71717 12.2898 1.71376 12.2694 1.71376C11.5964 1.70693 9.57056 4.45741 8.64262 6.46055C7.67049 8.55924 7.84724 10.187 7.56512 10.3781C7.56512 10.3781 6.77314 9.95837 4.7847 9.32364C2.83704 8.69915 1.49102 8.41933 1.37545 8.89366C0.88599 10.8695 1.11033 13.7633 2.2932 15.9848C2.50054 16.3773 3.007 17.5205 3.12936 17.7286C5.08041 21.1411 9.96145 22.4754 11.8989 22.3492H12.7657L12.7623 22.3526Z" fill="#7AC848"/>
<path d="M12.7979 20.1929C14.63 20.3021 19.2493 19.135 21.095 16.1491C21.2071 15.9648 21.2819 15.7805 21.4791 15.4393C22.6008 13.4942 23.2194 10.1499 22.7571 8.41977C22.6449 8.00345 21.3737 8.24915 19.5314 8.79515C17.6483 9.35139 16.9006 10.225 16.9006 10.225C16.632 10.0578 16.802 8.12971 15.8808 6.29378C15.0039 4.53976 13.0902 2.13735 12.4512 2.14418C12.4308 2.14418 12.4138 2.14418 12.3934 2.14759C12.373 2.14759 12.356 2.14418 12.3356 2.14418C11.6966 2.13735 9.78295 4.54317 8.90599 6.29378C7.98825 8.12971 8.1548 10.0578 7.88628 10.225C7.88628 10.225 7.13849 9.3548 5.25541 8.79515C3.41313 8.24915 2.14189 8.00345 2.02972 8.41977C1.56745 10.1499 2.18607 13.4942 3.30776 15.4393C3.5049 15.7805 3.57628 15.9648 3.69185 16.1491C5.53754 19.135 10.1568 20.3021 11.9889 20.1929H12.8081H12.7979Z" fill="#C6FA92"/>
<path d="M12.7979 20.6579C14.63 20.7568 19.2493 19.7092 21.095 17.0235C21.2071 16.8597 21.2819 16.6925 21.4791 16.3854C22.6008 14.6382 23.2194 11.6284 22.7571 10.0757C22.6449 9.70031 21.3737 9.92212 19.5314 10.4135C17.6483 10.9152 16.5471 11.5465 16.5471 11.5465C16.2785 11.3963 16.7986 9.81292 15.8808 8.16468C15.0039 6.5881 13.0902 4.42799 12.4512 4.4314C12.4308 4.4314 12.4138 4.4314 12.3934 4.4314C12.373 4.4314 12.356 4.4314 12.3356 4.4314C11.6966 4.42799 9.78295 6.5881 8.90599 8.16468C7.98825 9.81633 8.60688 11.4475 8.33835 11.5977C8.33835 11.5977 7.13849 10.9152 5.25541 10.4135C3.41313 9.92212 2.14189 9.70031 2.02972 10.0757C1.56745 11.6318 2.18607 14.6382 3.30776 16.3854C3.5049 16.6925 3.57628 16.8597 3.69185 17.0235C5.53754 19.7092 10.1568 20.7568 11.9889 20.6579H12.8081H12.7979Z" fill="#97E75C"/>
<path d="M11.9452 22.9615C10.99 22.9615 9.22592 22.6817 7.36324 21.8866C5.86086 21.245 3.82823 20.0575 2.67255 18.0373C2.60117 17.9144 2.54679 17.795 2.48901 17.6687C2.42782 17.5424 2.36324 17.3957 2.26127 17.208C0.990025 14.8193 0.334009 10.8676 0.857462 8.74843C0.915246 8.51638 1.0648 8.32187 1.27894 8.20243C1.74121 7.94308 2.53319 7.94308 5.03489 8.74502C6.0614 9.07262 6.7786 9.34562 7.24087 9.54013C7.24087 9.52648 7.24427 9.51283 7.24767 9.49918C7.35304 8.78255 7.52639 7.58477 8.16202 6.20612C8.62769 5.20284 9.36528 3.9914 10.1369 2.96765C11.5441 1.10101 12.1015 1.10442 12.3428 1.10784C12.3598 1.10784 12.3802 1.10784 12.4006 1.10784C12.421 1.10784 12.438 1.10784 12.4584 1.10784C12.7983 1.10784 13.1484 1.29894 13.6005 1.73232C13.9132 2.03262 14.2803 2.45919 14.661 2.96765C15.4326 3.9914 16.1702 5.19943 16.6358 6.20612C17.2749 7.58477 17.4482 8.78255 17.5502 9.49918C17.5502 9.51283 17.5536 9.52648 17.557 9.54013C18.0193 9.34903 18.7365 9.07603 19.763 8.74502C22.2681 7.94308 23.0566 7.94308 23.5189 8.20243C23.7331 8.32187 23.8826 8.51638 23.9404 8.74843C24.4639 10.8676 23.8078 14.8193 22.5366 17.2046C22.4346 17.3957 22.3666 17.539 22.3089 17.6653C22.2511 17.7916 22.1933 17.911 22.1253 18.0338C20.9662 20.0609 18.954 21.245 17.472 21.8832C15.6195 22.6783 13.8316 22.9581 12.8493 22.9581C12.8425 22.9581 12.8357 22.9581 12.8289 22.9581H11.9656C11.9656 22.9581 11.952 22.9581 11.9452 22.9581V22.9615ZM12.8323 21.7501C12.8323 21.7501 12.8459 21.7501 12.8527 21.7501C14.8717 21.7501 19.3313 20.4909 21.075 17.4332C21.1192 17.3513 21.1634 17.266 21.2144 17.1534C21.2755 17.0203 21.3537 16.8531 21.4693 16.6381C22.54 14.6282 23.1654 11.1372 22.8119 9.26031H22.8051C22.5298 9.26031 21.8364 9.35586 20.1267 9.90527C18.2334 10.5127 17.4516 10.9154 17.4448 10.9222L17.1253 11.0894L16.8262 10.8881C16.4965 10.6663 16.4387 10.2738 16.3537 9.68004C16.2518 8.98731 16.1022 7.94308 15.538 6.72482C14.593 4.68755 12.9173 2.59569 12.421 2.33634H12.4006H12.3802C11.884 2.5991 10.2048 4.68755 9.26331 6.72482C8.69907 7.94308 8.54951 8.98731 8.44754 9.68004C8.36256 10.2738 8.30478 10.6663 7.97507 10.8881L7.67595 11.0894L7.35644 10.9188C7.35644 10.9188 6.56786 10.5093 4.67459 9.90527C2.94448 9.35244 2.25447 9.26031 1.98595 9.26031C1.63245 11.1372 2.25787 14.6248 3.32857 16.6381C3.44414 16.8531 3.52232 17.0203 3.5835 17.1534C3.63788 17.266 3.67867 17.3548 3.72286 17.4332C4.71198 19.1634 6.50668 20.2042 7.83571 20.7707C9.42306 21.4498 11.041 21.7501 11.9486 21.7501C11.9554 21.7501 11.9588 21.7501 11.9656 21.7501H12.8323Z" fill="#255847"/>
<path d="M11.7744 16.5428C11.5127 16.5428 11.2747 16.3722 11.1965 16.1094C10.8464 14.9219 9.91171 12.6799 7.59016 11.0487C7.31824 10.8576 7.25026 10.4788 7.4406 10.2058C7.63095 9.9328 8.00824 9.86455 8.28017 10.0557C10.9042 11.8984 11.9579 14.4237 12.3522 15.7648C12.4474 16.0855 12.2639 16.4234 11.9443 16.5189C11.8866 16.536 11.8288 16.5428 11.7744 16.5428Z" fill="#255847"/>
<path d="M12.9328 16.5931C12.875 16.5931 12.8172 16.5862 12.7629 16.5692C12.4433 16.4736 12.2598 16.1358 12.355 15.815C12.7493 14.4739 13.803 11.9487 16.427 10.1059C16.699 9.9148 17.0762 9.97964 17.2666 10.2561C17.4569 10.5291 17.3924 10.9078 17.117 11.0989C14.7921 12.7301 13.8607 14.9687 13.5106 16.1597C13.4325 16.4224 13.1911 16.5931 12.9328 16.5931Z" fill="#255847"/>
</svg>
